<svg xmlns="http://www.w3.org/2000/svg" width="24" height="24" viewBox="0 0 24 24">
  <path fill="#362D59" d="M11.03 1.36C5.86 3.13 2 7.65 2 12.75 2 18.73 6.47 23.2 12.45 23.2c5.95 0 10.42-4.47 10.42-10.45 0-4.54-2.87-8.43-6.89-9.88zm-.11 18.84c-4.73 0-8.56-3.82-8.56-8.55 0-4.71 3.83-8.54 8.55-8.54 4.73 0 8.55 3.83 8.55 8.54 0 4.73-3.82 8.55-8.54 8.55z"/>
  <path fill="#E03E2F" d="M15.58 15.27c-.39 0-.76.15-1.04.43l-4.5 4.5c-.57.57-1.51.57-2.08 0s-.57-1.51 0-2.08l4.5-4.5c.28-.28.65-.43 1.04-.43s.76.15 1.04.43l4.5 4.5c.57.57.57 1.51 0 2.08-.28.29-.65.43-1.04.43z"/>
</svg>
